<svg width="161" height="52" viewBox="0 0 161 52" fill="none" xmlns="http://www.w3.org/2000/svg">
<path d="M30.5609 16.2857C30.5609 17.4913 30.0158 18.5723 29.1537 19.3056C28.4361 19.9161 27.4987 20.2857 26.4731 20.2857C25.5419 20.2857 24.6835 19.981 23.9962 19.468C23.9741 19.4516 23.9523 19.4349 23.9306 19.418C23.5473 19.1197 23.2199 18.7554 22.9665 18.3427C22.5975 17.7416 22.3854 17.0379 22.3854 16.2857C22.3854 15.123 22.8923 14.0762 23.7017 13.3453C24.4302 12.6876 25.4037 12.2857 26.4731 12.2857C27.5818 12.2857 28.5874 12.7176 29.3238 13.4189C30.0869 14.1456 30.5609 15.1615 30.5609 16.2857Z" fill="#00856F"/>
<path d="M16.5457 22C18.8033 22 20.6335 23.7909 20.6335 26C20.6335 26.9564 20.2905 27.8343 19.7183 28.5225C18.9688 29.4241 17.826 30 16.5457 30C15.4073 30 14.3775 29.5446 13.6364 28.8098C12.9077 28.0875 12.4579 27.0951 12.4579 26C12.4579 24.9049 12.9077 23.9125 13.6364 23.1902C14.3775 22.4554 15.4073 22 16.5457 22Z" fill="#00856F"/>
<path d="M30.5609 35.9048C30.5609 36.9704 30.135 37.9387 29.4407 38.6557C28.6957 39.4249 27.6417 39.9048 26.4731 39.9048C25.343 39.9048 24.32 39.456 23.5801 38.7307C22.8418 38.007 22.3854 37.008 22.3854 35.9048C22.3854 34.6051 23.0188 33.4502 24 32.7196C24.6867 32.2083 25.5437 31.9048 26.4731 31.9048C27.4663 31.9048 28.3768 32.2514 29.0851 32.8277C29.9868 33.5614 30.5609 34.6675 30.5609 35.9048Z" fill="#00856F"/>
<path d="M36.5952 22.0952C37.7142 22.0952 38.7281 22.5352 39.4663 23.248C40.2174 23.9732 40.683 24.981 40.683 26.0952C40.683 27.1714 40.2486 28.1483 39.5422 28.8673C38.7984 29.6242 37.753 30.0952 36.5952 30.0952C35.7059 30.0952 34.8829 29.8173 34.212 29.3455C33.9628 29.1702 33.7346 28.9682 33.5318 28.7437C32.8943 28.0383 32.5074 27.111 32.5074 26.0952C32.5074 25.1075 32.8733 24.2033 33.4797 23.5055C34.2295 22.6426 35.347 22.0952 36.5952 22.0952Z" fill="#00856F"/>
<path fill-rule="evenodd" clip-rule="evenodd" d="M41.4928 11.398C39.826 4.85097 33.7771 0 26.5704 0C19.3638 0 13.3149 4.85097 11.6481 11.398C4.9574 13.0291 0 18.948 0 26C0 33.052 4.9574 38.9709 11.6481 40.602C13.3149 47.149 19.3638 52 26.5704 52C33.7771 52 39.826 47.149 41.4928 40.602C48.1835 38.9709 53.1409 33.052 53.1409 26C53.1409 18.948 48.1835 13.0291 41.4928 11.398ZM11.232 16.1319C11.4203 18.7206 12.2779 21.1282 13.6364 23.1902C12.9077 23.9125 12.4579 24.9049 12.4579 26C12.4579 27.0951 12.9077 28.0875 13.6364 28.8098C14.3775 29.5446 15.4073 30 16.5457 30C17.826 30 18.9688 29.4241 19.7183 28.5225C19.7534 28.5397 19.683 28.5056 19.7183 28.5225C20.5049 27.9153 21.4846 27.4628 22.4247 27.0842C23.6165 26.6043 24.9145 26.325 26.2745 26.2896C26.3728 26.287 26.4715 26.2857 26.5704 26.2857C26.6694 26.2857 26.768 26.287 26.8664 26.2896C28.2264 26.325 29.5244 26.6043 30.7162 27.0842C31.6563 27.4628 32.5304 27.9663 33.317 28.5736C33.3893 28.6294 33.4609 28.6861 33.5318 28.7437C33.7346 28.9682 33.9628 29.1702 34.212 29.3455C36.1582 31.2177 37.3892 33.7996 37.4672 36.6628C37.4698 36.759 37.4711 36.8556 37.4711 36.9524C37.4711 38.3886 37.1811 39.7586 36.6551 41.0092C35.0237 44.8882 31.123 47.619 26.5704 47.619C22.0179 47.619 18.1172 44.8882 16.4858 41.0092C19.0817 40.8283 21.4995 40.0169 23.5801 38.7307C24.32 39.456 25.343 39.9048 26.4731 39.9048C27.6417 39.9048 28.6957 39.4249 29.4407 38.6557C30.135 37.9387 30.5609 36.9704 30.5609 35.9048C30.5609 34.6675 29.9868 33.5614 29.0851 32.8277C28.3768 32.2514 27.4663 31.9048 26.4731 31.9048C25.5437 31.9048 24.6867 32.2083 24 32.7196C23.98 32.6804 24.0197 32.759 24 32.7196C21.5151 34.5699 19.0261 36.5754 15.6737 36.6628C15.5754 36.6654 15.4767 36.6667 15.3778 36.6667C13.91 36.6667 12.51 36.3828 11.232 35.8681C7.26787 34.2718 4.47707 30.4548 4.47707 26C4.47707 21.5452 7.26787 17.7282 11.232 16.1319ZM26.5704 4.38095C31.123 4.38095 35.0237 7.11184 36.6551 10.9908C33.96 11.1786 31.4569 12.046 29.3238 13.4189C28.5874 12.7176 27.5818 12.2857 26.4731 12.2857C25.4037 12.2857 24.4302 12.6876 23.7017 13.3453C22.8923 14.0762 22.3854 15.123 22.3854 16.2857C22.3854 17.0379 22.5975 17.7416 22.9665 18.3427C23.2199 18.7554 23.5473 19.1197 23.9306 19.418C23.9523 19.4349 23.9741 19.4516 23.9962 19.468C24.6835 19.981 25.5419 20.2857 26.4731 20.2857C27.4987 20.2857 28.4361 19.9161 29.1537 19.3056C29.1383 19.2747 29.1694 19.3365 29.1537 19.3056C31.7557 17.0923 34.1148 15.4246 37.4672 15.3372C37.5655 15.3346 37.6642 15.3333 37.7631 15.3333C39.2309 15.3333 40.6309 15.6172 41.9089 16.1319C45.873 17.7282 48.6638 21.5452 48.6638 26C48.6638 30.4548 45.873 34.2718 41.9089 35.8681C41.7223 33.3034 40.8788 30.9164 39.5422 28.8673C40.2486 28.1483 40.683 27.1714 40.683 26.0952C40.683 24.981 40.2174 23.9732 39.4663 23.248C38.7281 22.5352 37.7142 22.0952 36.5952 22.0952C35.347 22.0952 34.2295 22.6426 33.4797 23.5055C33.4257 23.4788 33.3714 23.4525 33.317 23.4265C32.3626 22.9698 31.3528 22.607 30.3001 22.3504C29.4519 22.1436 28.5758 22.0057 27.6785 21.9432C27.3125 21.9177 26.943 21.9048 26.5704 21.9048C26.1979 21.9048 25.8284 21.9177 25.4624 21.9432C24.5651 22.0057 23.689 22.1436 22.8408 22.3504C21.788 22.607 20.7782 22.9698 19.8239 23.4265C17.3659 21.5288 15.763 18.6176 15.6737 15.3372C15.6711 15.241 15.6698 15.1444 15.6698 15.0476C15.6698 13.6114 15.9598 12.2414 16.4858 10.9908C18.1172 7.11184 22.0179 4.38095 26.5704 4.38095Z" fill="#00856F"/>
<path d="M71.6094 15.5851C73.3046 15.5851 74.7979 15.8744 76.0895 16.4531C77.3811 17.0318 78.3766 17.834 79.0762 18.8599C79.7758 19.8594 80.1256 21.0036 80.1256 22.2924V35.5887C80.1256 35.7202 80.0718 35.8386 79.9642 35.9438C79.8835 36.0227 79.7758 36.0622 79.6413 36.0622H75.9281C75.7935 36.0622 75.6724 36.0227 75.5648 35.9438C75.4841 35.8386 75.4437 35.7202 75.4437 35.5887V34.3262C75.4437 34.2472 75.4168 34.2078 75.363 34.2078C75.3092 34.1815 75.2554 34.1946 75.2015 34.2472C73.8831 35.6676 71.9726 36.3778 69.4702 36.3778C67.4522 36.3778 65.7839 35.878 64.4654 34.8785C63.1739 33.879 62.5281 32.3929 62.5281 30.4201C62.5281 28.3685 63.2546 26.7771 64.7076 25.6461C66.1875 24.4888 68.2594 23.9101 70.9232 23.9101H75.2419C75.3764 23.9101 75.4437 23.8443 75.4437 23.7128V22.7659C75.4437 21.7401 75.1343 20.951 74.5154 20.3986C73.8965 19.8199 72.9682 19.5306 71.7305 19.5306C70.708 19.5306 69.8738 19.7147 69.2281 20.083C68.6092 20.4249 68.219 20.9115 68.0576 21.5428C67.9769 21.8584 67.7885 21.9899 67.4925 21.9373L63.5775 21.4639C63.4429 21.4376 63.3218 21.3981 63.2142 21.3455C63.1335 21.2666 63.1066 21.1745 63.1335 21.0693C63.3488 19.4648 64.2233 18.1497 65.757 17.1239C67.3176 16.098 69.2684 15.5851 71.6094 15.5851ZM70.6407 32.748C71.9592 32.748 73.0893 32.406 74.0311 31.7221C74.9728 31.0383 75.4437 30.1702 75.4437 29.1181V27.2637C75.4437 27.1322 75.3764 27.0665 75.2419 27.0665H71.8516C70.4255 27.0665 69.2953 27.3295 68.4612 27.8556C67.654 28.3816 67.2504 29.1313 67.2504 30.1045C67.2504 30.9462 67.5598 31.6038 68.1787 32.0772C68.8244 32.5244 69.6451 32.748 70.6407 32.748Z" fill="#00856F"/>
<path d="M95.0376 15.664C95.8986 15.664 96.652 15.835 97.2978 16.1769C97.5131 16.2821 97.5938 16.4794 97.54 16.7688L96.8538 20.3197C96.8269 20.6353 96.6386 20.7274 96.2888 20.5959C95.8852 20.4644 95.4143 20.3986 94.8761 20.3986C94.5263 20.3986 94.2573 20.4118 94.0689 20.4381C92.9388 20.4907 91.997 20.8852 91.2436 21.6217C90.4902 22.3319 90.1135 23.2657 90.1135 24.423V35.5887C90.1135 35.7202 90.0597 35.8386 89.952 35.9438C89.8713 36.0227 89.7637 36.0622 89.6292 36.0622H85.9159C85.7814 36.0622 85.6603 36.0227 85.5527 35.9438C85.4719 35.8386 85.4316 35.7202 85.4316 35.5887V16.3742C85.4316 16.2427 85.4719 16.1375 85.5527 16.0586C85.6603 15.9534 85.7814 15.9008 85.9159 15.9008H89.6292C89.7637 15.9008 89.8713 15.9534 89.952 16.0586C90.0597 16.1375 90.1135 16.2427 90.1135 16.3742V18.1497C90.1135 18.2549 90.1269 18.3206 90.1539 18.347C90.2077 18.347 90.2615 18.3075 90.3153 18.2286C91.4454 16.5189 93.0195 15.664 95.0376 15.664Z" fill="#00856F"/>
<path d="M108.644 36.2989C106.949 36.2989 105.456 36.0622 104.164 35.5887C102.899 35.0889 101.917 34.4182 101.218 33.5765C100.518 32.7085 100.168 31.7484 100.168 30.6963V30.3412C100.168 30.2097 100.209 30.1045 100.289 30.0256C100.397 29.9204 100.518 29.8678 100.653 29.8678H104.204C104.339 29.8678 104.447 29.9204 104.527 30.0256C104.635 30.1045 104.689 30.2097 104.689 30.3412V30.4201C104.689 31.0777 105.052 31.6564 105.778 32.1561C106.532 32.6296 107.474 32.8663 108.604 32.8663C109.68 32.8663 110.555 32.6559 111.227 32.235C111.9 31.7879 112.236 31.2355 112.236 30.5779C112.236 29.973 111.954 29.5258 111.389 29.2365C110.851 28.9208 109.963 28.5921 108.725 28.2501L107.191 27.7767C105.819 27.3821 104.662 26.9613 103.72 26.5141C102.778 26.0669 101.984 25.462 101.339 24.6992C100.693 23.9101 100.37 22.9106 100.37 21.7006C100.37 19.8594 101.11 18.3996 102.59 17.3211C104.07 16.2164 106.021 15.664 108.442 15.664C110.084 15.664 111.523 15.9271 112.761 16.4531C113.999 16.9529 114.954 17.6631 115.627 18.5837C116.299 19.478 116.636 20.5038 116.636 21.6612C116.636 21.7927 116.582 21.911 116.474 22.0162C116.393 22.0952 116.286 22.1346 116.151 22.1346H112.721C112.586 22.1346 112.465 22.0952 112.357 22.0162C112.277 21.911 112.236 21.7927 112.236 21.6612C112.236 20.9773 111.886 20.4118 111.187 19.9646C110.514 19.4911 109.586 19.2544 108.402 19.2544C107.353 19.2544 106.491 19.4517 105.819 19.8462C105.173 20.2145 104.85 20.7405 104.85 21.4244C104.85 22.0557 105.16 22.5423 105.778 22.8843C106.424 23.1999 107.487 23.555 108.967 23.9495L109.855 24.1863C111.281 24.6071 112.478 25.0411 113.447 25.4883C114.416 25.9091 115.236 26.5141 115.909 27.3032C116.582 28.066 116.918 29.0655 116.918 30.3018C116.918 32.1693 116.165 33.6423 114.658 34.7207C113.151 35.7728 111.146 36.2989 108.644 36.2989Z" fill="#00856F"/>
<path d="M138.881 23.7128C138.989 24.3704 139.043 25.1069 139.043 25.9223L139.002 27.1454C139.002 27.461 138.841 27.6188 138.518 27.6188H125.885C125.75 27.6188 125.683 27.6846 125.683 27.8161C125.764 28.6841 125.885 29.2759 126.046 29.5916C126.692 31.4854 128.266 32.4455 130.769 32.4718C132.598 32.4718 134.051 31.7353 135.128 30.2623C135.235 30.1045 135.37 30.0256 135.531 30.0256C135.639 30.0256 135.733 30.065 135.814 30.1439L138.316 32.1561C138.558 32.3403 138.599 32.5507 138.437 32.7874C137.603 33.9448 136.487 34.8391 135.087 35.4703C133.715 36.1016 132.181 36.4173 130.486 36.4173C128.387 36.4173 126.598 35.957 125.118 35.0363C123.665 34.1157 122.602 32.8269 121.93 31.1698C121.311 29.7494 121.001 27.7767 121.001 25.2515C121.001 23.726 121.163 22.4897 121.486 21.5428C122.024 19.7016 123.033 18.2549 124.513 17.2028C126.02 16.1243 127.822 15.5851 129.921 15.5851C135.222 15.5851 138.209 18.2943 138.881 23.7128ZM129.921 19.5306C128.926 19.5306 128.091 19.7805 127.419 20.2802C126.773 20.7537 126.316 21.4244 126.046 22.2924C125.885 22.7396 125.777 23.3183 125.724 24.0284C125.67 24.16 125.724 24.2257 125.885 24.2257H134.078C134.213 24.2257 134.28 24.16 134.28 24.0284C134.226 23.3709 134.146 22.8711 134.038 22.5292C133.796 21.5822 133.312 20.8458 132.585 20.3197C131.885 19.7936 130.997 19.5306 129.921 19.5306Z" fill="#00856F"/>
<path d="M153.816 15.5851C155.995 15.5851 157.731 16.2164 159.022 17.4789C160.341 18.7415 161 20.4644 161 22.6475V35.5887C161 35.7202 160.946 35.8386 160.839 35.9438C160.758 36.0227 160.65 36.0622 160.516 36.0622H156.802C156.668 36.0622 156.547 36.0227 156.439 35.9438C156.358 35.8386 156.318 35.7202 156.318 35.5887V23.5944C156.318 22.3845 155.968 21.4113 155.269 20.6748C154.569 19.912 153.641 19.5306 152.484 19.5306C151.327 19.5306 150.385 19.8988 149.658 20.6353C148.959 21.3718 148.609 22.345 148.609 23.555V35.5887C148.609 35.7202 148.555 35.8386 148.448 35.9438C148.367 36.0227 148.259 36.0622 148.125 36.0622H144.412C144.277 36.0622 144.156 36.0227 144.048 35.9438C143.968 35.8386 143.927 35.7202 143.927 35.5887V16.3742C143.927 16.2427 143.968 16.1375 144.048 16.0586C144.156 15.9534 144.277 15.9008 144.412 15.9008H148.125C148.259 15.9008 148.367 15.9534 148.448 16.0586C148.555 16.1375 148.609 16.2427 148.609 16.3742V17.6368C148.609 17.7157 148.636 17.7683 148.69 17.7946C148.744 17.8209 148.784 17.7946 148.811 17.7157C149.914 16.2953 151.582 15.5851 153.816 15.5851Z" fill="#00856F"/>
</svg>
