<svg width="161" height="52" viewBox="0 0 161 52" fill="none" xmlns="http://www.w3.org/2000/svg">
<path d="M30.5609 16.2857C30.5609 17.4913 30.0158 18.5723 29.1537 19.3056C28.4361 19.9161 27.4987 20.2857 26.4731 20.2857C25.5419 20.2857 24.6835 19.981 23.9962 19.468C23.9741 19.4516 23.9523 19.4349 23.9306 19.418C23.5473 19.1197 23.2199 18.7554 22.9665 18.3427C22.5975 17.7416 22.3854 17.0379 22.3854 16.2857C22.3854 15.123 22.8923 14.0762 23.7017 13.3453C24.4302 12.6876 25.4037 12.2857 26.4731 12.2857C27.5818 12.2857 28.5874 12.7176 29.3238 13.4189C30.0869 14.1456 30.5609 15.1615 30.5609 16.2857Z" fill="white"/>
<path d="M16.5457 22C18.8033 22 20.6335 23.7909 20.6335 26C20.6335 26.9564 20.2905 27.8343 19.7183 28.5225C18.9688 29.4241 17.826 30 16.5457 30C15.4073 30 14.3775 29.5446 13.6364 28.8098C12.9077 28.0875 12.4579 27.0951 12.4579 26C12.4579 24.9049 12.9077 23.9125 13.6364 23.1902C14.3775 22.4554 15.4073 22 16.5457 22Z" fill="white"/>
<path d="M30.5609 35.9048C30.5609 36.9704 30.135 37.9387 29.4407 38.6557C28.6957 39.4249 27.6417 39.9048 26.4731 39.9048C25.343 39.9048 24.32 39.456 23.5801 38.7307C22.8418 38.007 22.3854 37.008 22.3854 35.9048C22.3854 34.6051 23.0188 33.4502 24 32.7196C24.6867 32.2083 25.5437 31.9048 26.4731 31.9048C27.4663 31.9048 28.3768 32.2514 29.0851 32.8277C29.9868 33.5614 30.5609 34.6675 30.5609 35.9048Z" fill="white"/>
<path d="M36.5952 22.0952C37.7142 22.0952 38.7281 22.5352 39.4663 23.248C40.2174 23.9732 40.683 24.981 40.683 26.0952C40.683 27.1714 40.2486 28.1483 39.5422 28.8673C38.7984 29.6242 37.753 30.0952 36.5952 30.0952C35.7059 30.0952 34.8829 29.8173 34.212 29.3455C33.9628 29.1702 33.7346 28.9682 33.5318 28.7437C32.8943 28.0383 32.5074 27.111 32.5074 26.0952C32.5074 25.1075 32.8733 24.2033 33.4797 23.5055C34.2295 22.6426 35.347 22.0952 36.5952 22.0952Z" fill="white"/>
<path fill-rule="evenodd" clip-rule="evenodd" d="M41.4928 11.398C39.826 4.85097 33.7771 0 26.5704 0C19.3638 0 13.3149 4.85097 11.6481 11.398C4.9574 13.0291 0 18.948 0 26C0 33.052 4.9574 38.9709 11.6481 40.602C13.3149 47.149 19.3638 52 26.5704 52C33.7771 52 39.826 47.149 41.4928 40.602C48.1835 38.9709 53.1409 33.052 53.1409 26C53.1409 18.948 48.1835 13.0291 41.4928 11.398ZM11.232 16.1319C11.4203 18.7206 12.2779 21.1282 13.6364 23.1902C12.9077 23.9125 12.4579 24.9049 12.4579 26C12.4579 27.0951 12.9077 28.0875 13.6364 28.8098C14.3775 29.5446 15.4073 30 16.5457 30C17.826 30 18.9688 29.4241 19.7183 28.5225C19.7534 28.5397 19.683 28.5056 19.7183 28.5225C20.5049 27.9153 21.4846 27.4628 22.4247 27.0842C23.6165 26.6043 24.9145 26.325 26.2745 26.2896C26.3728 26.287 26.4715 26.2857 26.5704 26.2857C26.6694 26.2857 26.768 26.287 26.8664 26.2896C28.2264 26.325 29.5244 26.6043 30.7162 27.0842C31.6563 27.4628 32.5304 27.9663 33.317 28.5736C33.3893 28.6294 33.4609 28.6861 33.5318 28.7437C33.7346 28.9682 33.9628 29.1702 34.212 29.3455C36.1582 31.2177 37.3892 33.7996 37.4672 36.6628C37.4698 36.759 37.4711 36.8556 37.4711 36.9524C37.4711 38.3886 37.1811 39.7586 36.6551 41.0092C35.0237 44.8882 31.123 47.619 26.5704 47.619C22.0179 47.619 18.1172 44.8882 16.4858 41.0092C19.0817 40.8283 21.4995 40.0169 23.5801 38.7307C24.32 39.456 25.343 39.9048 26.4731 39.9048C27.6417 39.9048 28.6957 39.4249 29.4407 38.6557C30.135 37.9387 30.5609 36.9704 30.5609 35.9048C30.5609 34.6675 29.9868 33.5614 29.0851 32.8277C28.3768 32.2514 27.4663 31.9048 26.4731 31.9048C25.5437 31.9048 24.6867 32.2083 24 32.7196C23.98 32.6804 24.0197 32.759 24 32.7196C21.5151 34.5699 19.0261 36.5754 15.6737 36.6628C15.5754 36.6654 15.4767 36.6667 15.3778 36.6667C13.91 36.6667 12.51 36.3828 11.232 35.8681C7.26787 34.2718 4.47707 30.4548 4.47707 26C4.47707 21.5452 7.26787 17.7282 11.232 16.1319ZM26.5704 4.38095C31.123 4.38095 35.0237 7.11184 36.6551 10.9908C33.96 11.1786 31.4569 12.046 29.3238 13.4189C28.5874 12.7176 27.5818 12.2857 26.4731 12.2857C25.4037 12.2857 24.4302 12.6876 23.7017 13.3453C22.8923 14.0762 22.3854 15.123 22.3854 16.2857C22.3854 17.0379 22.5975 17.7416 22.9665 18.3427C23.2199 18.7554 23.5473 19.1197 23.9306 19.418C23.9523 19.4349 23.9741 19.4516 23.9962 19.468C24.6835 19.981 25.5419 20.2857 26.4731 20.2857C27.4987 20.2857 28.4361 19.9161 29.1537 19.3056C29.1383 19.2747 29.1694 19.3365 29.1537 19.3056C31.7557 17.0923 34.1148 15.4246 37.4672 15.3372C37.5655 15.3346 37.6642 15.3333 37.7631 15.3333C39.2309 15.3333 40.6309 15.6172 41.9089 16.1319C45.873 17.7282 48.6638 21.5452 48.6638 26C48.6638 30.4548 45.873 34.2718 41.9089 35.8681C41.7223 33.3034 40.8788 30.9164 39.5422 28.8673C40.2486 28.1483 40.683 27.1714 40.683 26.0952C40.683 24.981 40.2174 23.9732 39.4663 23.248C38.7281 22.5352 37.7142 22.0952 36.5952 22.0952C35.347 22.0952 34.2295 22.6426 33.4797 23.5055C33.4257 23.4788 33.3714 23.4525 33.317 23.4265C32.3626 22.9698 31.3528 22.607 30.3001 22.3504C29.4519 22.1436 28.5758 22.0057 27.6785 21.9432C27.3125 21.9177 26.943 21.9048 26.5704 21.9048C26.1979 21.9048 25.8284 21.9177 25.4624 21.9432C24.5651 22.0057 23.689 22.1436 22.8408 22.3504C21.788 22.607 20.7782 22.9698 19.8239 23.4265C17.3659 21.5288 15.763 18.6176 15.6737 15.3372C15.6711 15.241 15.6698 15.1444 15.6698 15.0476C15.6698 13.6114 15.9598 12.2414 16.4858 10.9908C18.1172 7.11184 22.0179 4.38095 26.5704 4.38095Z" fill="white"/>
<path d="M71.6094 15.585C73.3046 15.585 74.7979 15.8743 76.0895 16.453C77.3811 17.0316 78.3766 17.8339 79.0762 18.8597C79.7758 19.8592 80.1256 21.0034 80.1256 22.2923V35.5886C80.1256 35.7201 80.0718 35.8384 79.9642 35.9436C79.8835 36.0226 79.7758 36.062 79.6413 36.062H75.9281C75.7935 36.062 75.6724 36.0226 75.5648 35.9436C75.4841 35.8384 75.4437 35.7201 75.4437 35.5886V34.326C75.4437 34.2471 75.4168 34.2076 75.363 34.2076C75.3092 34.1813 75.2554 34.1945 75.2015 34.2471C73.8831 35.6675 71.9726 36.3776 69.4702 36.3776C67.4522 36.3776 65.7839 35.8779 64.4654 34.8784C63.1739 33.8788 62.5281 32.3927 62.5281 30.42C62.5281 28.3683 63.2546 26.777 64.7076 25.6459C66.1875 24.4886 68.2594 23.9099 70.9232 23.9099H75.2419C75.3764 23.9099 75.4437 23.8442 75.4437 23.7127V22.7657C75.4437 21.7399 75.1343 20.9508 74.5154 20.3985C73.8965 19.8198 72.9682 19.5304 71.7305 19.5304C70.708 19.5304 69.8738 19.7146 69.2281 20.0828C68.6092 20.4248 68.219 20.9114 68.0576 21.5426C67.9769 21.8583 67.7885 21.9898 67.4925 21.9372L63.5775 21.4637C63.4429 21.4374 63.3218 21.398 63.2142 21.3454C63.1335 21.2665 63.1066 21.1744 63.1335 21.0692C63.3488 19.4647 64.2233 18.1495 65.757 17.1237C67.3176 16.0979 69.2684 15.585 71.6094 15.585ZM70.6407 32.7478C71.9592 32.7478 73.0893 32.4059 74.0311 31.722C74.9728 31.0381 75.4437 30.1701 75.4437 29.118V27.2636C75.4437 27.1321 75.3764 27.0663 75.2419 27.0663H71.8516C70.4255 27.0663 69.2953 27.3293 68.4612 27.8554C67.654 28.3815 67.2504 29.1311 67.2504 30.1043C67.2504 30.946 67.5598 31.6036 68.1787 32.0771C68.8244 32.5242 69.6451 32.7478 70.6407 32.7478Z" fill="white"/>
<path d="M95.0376 15.6639C95.8986 15.6639 96.652 15.8348 97.2978 16.1768C97.5131 16.282 97.5938 16.4793 97.54 16.7686L96.8538 20.3195C96.8269 20.6352 96.6386 20.7272 96.2888 20.5957C95.8852 20.4642 95.4143 20.3985 94.8761 20.3985C94.5263 20.3985 94.2573 20.4116 94.0689 20.4379C92.9388 20.4905 91.997 20.8851 91.2436 21.6215C90.4902 22.3317 90.1135 23.2655 90.1135 24.4228V35.5886C90.1135 35.7201 90.0597 35.8384 89.952 35.9436C89.8713 36.0226 89.7637 36.062 89.6292 36.062H85.9159C85.7814 36.062 85.6603 36.0226 85.5527 35.9436C85.4719 35.8384 85.4316 35.7201 85.4316 35.5886V16.3741C85.4316 16.2425 85.4719 16.1373 85.5527 16.0584C85.6603 15.9532 85.7814 15.9006 85.9159 15.9006H89.6292C89.7637 15.9006 89.8713 15.9532 89.952 16.0584C90.0597 16.1373 90.1135 16.2425 90.1135 16.3741V18.1495C90.1135 18.2547 90.1269 18.3205 90.1539 18.3468C90.2077 18.3468 90.2615 18.3073 90.3153 18.2284C91.4454 16.5187 93.0195 15.6639 95.0376 15.6639Z" fill="white"/>
<path d="M108.644 36.2987C106.949 36.2987 105.456 36.062 104.164 35.5886C102.899 35.0888 101.917 34.4181 101.218 33.5764C100.518 32.7084 100.168 31.7483 100.168 30.6962V30.3411C100.168 30.2095 100.209 30.1043 100.289 30.0254C100.397 29.9202 100.518 29.8676 100.653 29.8676H104.204C104.339 29.8676 104.447 29.9202 104.527 30.0254C104.635 30.1043 104.689 30.2095 104.689 30.3411V30.42C104.689 31.0776 105.052 31.6562 105.778 32.156C106.532 32.6294 107.474 32.8662 108.604 32.8662C109.68 32.8662 110.555 32.6557 111.227 32.2349C111.9 31.7877 112.236 31.2354 112.236 30.5778C112.236 29.9728 111.954 29.5257 111.389 29.2363C110.851 28.9207 109.963 28.5919 108.725 28.25L107.191 27.7765C105.819 27.382 104.662 26.9611 103.72 26.5139C102.778 26.0668 101.984 25.4618 101.339 24.699C100.693 23.9099 100.37 22.9104 100.37 21.7005C100.37 19.8592 101.11 18.3994 102.59 17.321C104.07 16.2162 106.021 15.6639 108.442 15.6639C110.084 15.6639 111.523 15.9269 112.761 16.453C113.999 16.9527 114.954 17.6629 115.627 18.5835C116.299 19.4778 116.636 20.5037 116.636 21.661C116.636 21.7925 116.582 21.9109 116.474 22.0161C116.393 22.095 116.286 22.1345 116.151 22.1345H112.721C112.586 22.1345 112.465 22.095 112.357 22.0161C112.277 21.9109 112.236 21.7925 112.236 21.661C112.236 20.9771 111.886 20.4116 111.187 19.9644C110.514 19.491 109.586 19.2543 108.402 19.2543C107.353 19.2543 106.491 19.4515 105.819 19.8461C105.173 20.2143 104.85 20.7404 104.85 21.4243C104.85 22.0556 105.16 22.5422 105.778 22.8841C106.424 23.1997 107.487 23.5548 108.967 23.9494L109.855 24.1861C111.281 24.607 112.478 25.041 113.447 25.4881C114.416 25.909 115.236 26.5139 115.909 27.303C116.582 28.0658 116.918 29.0654 116.918 30.3016C116.918 32.1691 116.165 33.6421 114.658 34.7205C113.151 35.7727 111.146 36.2987 108.644 36.2987Z" fill="white"/>
<path d="M138.881 23.7127C138.989 24.3702 139.043 25.1067 139.043 25.9221L139.002 27.1452C139.002 27.4609 138.841 27.6187 138.518 27.6187H125.885C125.75 27.6187 125.683 27.6844 125.683 27.816C125.764 28.684 125.885 29.2758 126.046 29.5914C126.692 31.4853 128.266 32.4453 130.769 32.4716C132.598 32.4716 134.051 31.7351 135.128 30.2622C135.235 30.1043 135.37 30.0254 135.531 30.0254C135.639 30.0254 135.733 30.0649 135.814 30.1438L138.316 32.156C138.558 32.3401 138.599 32.5505 138.437 32.7873C137.603 33.9446 136.487 34.8389 135.087 35.4702C133.715 36.1015 132.181 36.4171 130.486 36.4171C128.387 36.4171 126.598 35.9568 125.118 35.0362C123.665 34.1156 122.602 32.8267 121.93 31.1696C121.311 29.7492 121.001 27.7765 121.001 25.2514C121.001 23.7258 121.163 22.4896 121.486 21.5426C122.024 19.7014 123.033 18.2547 124.513 17.2026C126.02 16.1242 127.822 15.585 129.921 15.585C135.222 15.585 138.209 18.2942 138.881 23.7127ZM129.921 19.5304C128.926 19.5304 128.091 19.7803 127.419 20.2801C126.773 20.7535 126.316 21.4243 126.046 22.2923C125.885 22.7394 125.777 23.3181 125.724 24.0283C125.67 24.1598 125.724 24.2256 125.885 24.2256H134.078C134.213 24.2256 134.28 24.1598 134.28 24.0283C134.226 23.3707 134.146 22.871 134.038 22.529C133.796 21.5821 133.312 20.8456 132.585 20.3195C131.885 19.7935 130.997 19.5304 129.921 19.5304Z" fill="white"/>
<path d="M153.816 15.585C155.995 15.585 157.731 16.2162 159.022 17.4788C160.341 18.7413 161 20.4642 161 22.6474V35.5886C161 35.7201 160.946 35.8384 160.839 35.9436C160.758 36.0226 160.65 36.062 160.516 36.062H156.802C156.668 36.062 156.547 36.0226 156.439 35.9436C156.358 35.8384 156.318 35.7201 156.318 35.5886V23.5943C156.318 22.3843 155.968 21.4111 155.269 20.6746C154.569 19.9118 153.641 19.5304 152.484 19.5304C151.327 19.5304 150.385 19.8987 149.658 20.6352C148.959 21.3717 148.609 22.3449 148.609 23.5548V35.5886C148.609 35.7201 148.555 35.8384 148.448 35.9436C148.367 36.0226 148.259 36.062 148.125 36.062H144.412C144.277 36.062 144.156 36.0226 144.048 35.9436C143.968 35.8384 143.927 35.7201 143.927 35.5886V16.3741C143.927 16.2425 143.968 16.1373 144.048 16.0584C144.156 15.9532 144.277 15.9006 144.412 15.9006H148.125C148.259 15.9006 148.367 15.9532 148.448 16.0584C148.555 16.1373 148.609 16.2425 148.609 16.3741V17.6366C148.609 17.7155 148.636 17.7681 148.69 17.7944C148.744 17.8207 148.784 17.7944 148.811 17.7155C149.914 16.2951 151.582 15.585 153.816 15.585Z" fill="white"/>
</svg>
