<svg width="54" height="52" viewBox="0 0 54 52" fill="none" xmlns="http://www.w3.org/2000/svg">
<path d="M30.5609 16.2857C30.5609 17.4913 30.0158 18.5723 29.1537 19.3056C28.4361 19.9161 27.4987 20.2857 26.4731 20.2857C25.5419 20.2857 24.6835 19.981 23.9962 19.468C23.9741 19.4516 23.9523 19.4349 23.9306 19.418C23.5473 19.1197 23.2199 18.7554 22.9665 18.3427C22.5975 17.7416 22.3854 17.0379 22.3854 16.2857C22.3854 15.123 22.8923 14.0762 23.7017 13.3453C24.4302 12.6876 25.4037 12.2857 26.4731 12.2857C27.5818 12.2857 28.5874 12.7176 29.3238 13.4189C30.0869 14.1456 30.5609 15.1615 30.5609 16.2857Z" fill="#00856F"/>
<path d="M16.5457 22C18.8033 22 20.6335 23.7909 20.6335 26C20.6335 26.9564 20.2905 27.8343 19.7183 28.5225C18.9688 29.4241 17.826 30 16.5457 30C15.4073 30 14.3775 29.5446 13.6364 28.8098C12.9077 28.0875 12.4579 27.0951 12.4579 26C12.4579 24.9049 12.9077 23.9125 13.6364 23.1902C14.3775 22.4554 15.4073 22 16.5457 22Z" fill="#00856F"/>
<path d="M30.5609 35.9048C30.5609 36.9704 30.135 37.9387 29.4407 38.6557C28.6957 39.4249 27.6417 39.9048 26.4731 39.9048C25.343 39.9048 24.32 39.456 23.5801 38.7307C22.8418 38.007 22.3854 37.008 22.3854 35.9048C22.3854 34.6051 23.0188 33.4502 24 32.7196C24.6867 32.2083 25.5437 31.9048 26.4731 31.9048C27.4663 31.9048 28.3768 32.2514 29.0851 32.8277C29.9868 33.5614 30.5609 34.6675 30.5609 35.9048Z" fill="#00856F"/>
<path d="M36.5952 22.0952C37.7142 22.0952 38.7281 22.5352 39.4663 23.248C40.2174 23.9732 40.683 24.981 40.683 26.0952C40.683 27.1714 40.2486 28.1483 39.5422 28.8673C38.7984 29.6242 37.753 30.0952 36.5952 30.0952C35.7059 30.0952 34.8829 29.8173 34.212 29.3455C33.9628 29.1702 33.7346 28.9682 33.5318 28.7437C32.8943 28.0383 32.5074 27.111 32.5074 26.0952C32.5074 25.1075 32.8733 24.2033 33.4797 23.5055C34.2295 22.6426 35.347 22.0952 36.5952 22.0952Z" fill="#00856F"/>
<path fill-rule="evenodd" clip-rule="evenodd" d="M41.4928 11.398C39.826 4.85097 33.7771 0 26.5704 0C19.3638 0 13.3149 4.85097 11.6481 11.398C4.9574 13.0291 0 18.948 0 26C0 33.052 4.9574 38.9709 11.6481 40.602C13.3149 47.149 19.3638 52 26.5704 52C33.7771 52 39.826 47.149 41.4928 40.602C48.1835 38.9709 53.1409 33.052 53.1409 26C53.1409 18.948 48.1835 13.0291 41.4928 11.398ZM11.232 16.1319C11.4203 18.7206 12.2779 21.1282 13.6364 23.1902C12.9077 23.9125 12.4579 24.9049 12.4579 26C12.4579 27.0951 12.9077 28.0875 13.6364 28.8098C14.3775 29.5446 15.4073 30 16.5457 30C17.826 30 18.9688 29.4241 19.7183 28.5225C19.7534 28.5397 19.683 28.5056 19.7183 28.5225C20.5049 27.9153 21.4846 27.4628 22.4247 27.0842C23.6165 26.6043 24.9145 26.325 26.2745 26.2896C26.3728 26.287 26.4715 26.2857 26.5704 26.2857C26.6694 26.2857 26.768 26.287 26.8664 26.2896C28.2264 26.325 29.5244 26.6043 30.7162 27.0842C31.6563 27.4628 32.5304 27.9663 33.317 28.5736C33.3893 28.6294 33.4609 28.6861 33.5318 28.7437C33.7346 28.9682 33.9628 29.1702 34.212 29.3455C36.1582 31.2177 37.3892 33.7996 37.4672 36.6628C37.4698 36.759 37.4711 36.8556 37.4711 36.9524C37.4711 38.3886 37.1811 39.7586 36.6551 41.0092C35.0237 44.8882 31.123 47.619 26.5704 47.619C22.0179 47.619 18.1172 44.8882 16.4858 41.0092C19.0817 40.8283 21.4995 40.0169 23.5801 38.7307C24.32 39.456 25.343 39.9048 26.4731 39.9048C27.6417 39.9048 28.6957 39.4249 29.4407 38.6557C30.135 37.9387 30.5609 36.9704 30.5609 35.9048C30.5609 34.6675 29.9868 33.5614 29.0851 32.8277C28.3768 32.2514 27.4663 31.9048 26.4731 31.9048C25.5437 31.9048 24.6867 32.2083 24 32.7196C23.98 32.6804 24.0197 32.759 24 32.7196C21.5151 34.5699 19.0261 36.5754 15.6737 36.6628C15.5754 36.6654 15.4767 36.6667 15.3778 36.6667C13.91 36.6667 12.51 36.3828 11.232 35.8681C7.26787 34.2718 4.47707 30.4548 4.47707 26C4.47707 21.5452 7.26787 17.7282 11.232 16.1319ZM26.5704 4.38095C31.123 4.38095 35.0237 7.11184 36.6551 10.9908C33.96 11.1786 31.4569 12.046 29.3238 13.4189C28.5874 12.7176 27.5818 12.2857 26.4731 12.2857C25.4037 12.2857 24.4302 12.6876 23.7017 13.3453C22.8923 14.0762 22.3854 15.123 22.3854 16.2857C22.3854 17.0379 22.5975 17.7416 22.9665 18.3427C23.2199 18.7554 23.5473 19.1197 23.9306 19.418C23.9523 19.4349 23.9741 19.4516 23.9962 19.468C24.6835 19.981 25.5419 20.2857 26.4731 20.2857C27.4987 20.2857 28.4361 19.9161 29.1537 19.3056C29.1383 19.2747 29.1694 19.3365 29.1537 19.3056C31.7557 17.0923 34.1148 15.4246 37.4672 15.3372C37.5655 15.3346 37.6642 15.3333 37.7631 15.3333C39.2309 15.3333 40.6309 15.6172 41.9089 16.1319C45.873 17.7282 48.6638 21.5452 48.6638 26C48.6638 30.4548 45.873 34.2718 41.9089 35.8681C41.7223 33.3034 40.8788 30.9164 39.5422 28.8673C40.2486 28.1483 40.683 27.1714 40.683 26.0952C40.683 24.981 40.2174 23.9732 39.4663 23.248C38.7281 22.5352 37.7142 22.0952 36.5952 22.0952C35.347 22.0952 34.2295 22.6426 33.4797 23.5055C33.4257 23.4788 33.3714 23.4525 33.317 23.4265C32.3626 22.9698 31.3528 22.607 30.3001 22.3504C29.4519 22.1436 28.5758 22.0057 27.6785 21.9432C27.3125 21.9177 26.943 21.9048 26.5704 21.9048C26.1979 21.9048 25.8284 21.9177 25.4624 21.9432C24.5651 22.0057 23.689 22.1436 22.8408 22.3504C21.788 22.607 20.7782 22.9698 19.8239 23.4265C17.3659 21.5288 15.763 18.6176 15.6737 15.3372C15.6711 15.241 15.6698 15.1444 15.6698 15.0476C15.6698 13.6114 15.9598 12.2414 16.4858 10.9908C18.1172 7.11184 22.0179 4.38095 26.5704 4.38095Z" fill="#00856F"/>
</svg>
