<svg width="28" height="32" viewBox="0 0 28 32" fill="none" xmlns="http://www.w3.org/2000/svg">
<path d="M8.34664 16.1133C12.7933 16.1133 16.4 12.5067 16.4 8.06C16.4 3.61333 12.7933 0 8.34664 0C3.89997 0 0.293304 3.60667 0.293304 8.05333C0.293304 12.5 3.89997 16.1133 8.34664 16.1133ZM5.5333 11.24C5.60664 10.9733 5.67997 10.7133 5.75997 10.4467C5.8533 10.14 5.93997 10.1067 6.21997 10.2533C6.69997 10.5 7.20664 10.64 7.73997 10.7067C8.07997 10.7467 8.41997 10.7133 8.7333 10.5733C9.32664 10.3133 9.41997 9.62667 8.91997 9.21333C8.74664 9.07333 8.5533 8.96667 8.3533 8.88C7.8333 8.65333 7.2933 8.48 6.79997 8.18667C6.00664 7.71333 5.49997 7.05333 5.55997 6.08667C5.62664 4.99333 6.24664 4.30667 7.24664 3.94667C7.65997 3.79333 7.65997 3.8 7.66664 3.36667C7.66664 3.22 7.66664 3.07333 7.66664 2.92667C7.6733 2.6 7.7333 2.54667 8.0533 2.53333C8.1533 2.53333 8.2533 2.53333 8.3533 2.53333C9.04664 2.53333 9.04664 2.53333 9.04664 3.22667C9.04664 3.71333 9.04664 3.72 9.5333 3.79333C9.90664 3.85333 10.26 3.96 10.6066 4.11333C10.8 4.2 10.8666 4.33333 10.8133 4.53333C10.7266 4.83333 10.6466 5.13333 10.5466 5.42667C10.4533 5.70667 10.3666 5.74667 10.1 5.62C9.55997 5.36 8.9933 5.24667 8.3933 5.28C8.2333 5.28667 8.08664 5.30667 7.93997 5.37333C7.42664 5.6 7.33997 6.16667 7.77997 6.52C7.99997 6.7 8.2533 6.82667 8.51997 6.93333C8.9733 7.12 9.4333 7.30667 9.8733 7.54667C11.2533 8.31333 11.6266 10.0467 10.6533 11.2267C10.3 11.6533 9.84664 11.94 9.30664 12.0867C9.07331 12.1533 8.96664 12.2733 8.97997 12.5133C8.9933 12.7533 8.97997 12.9867 8.97997 13.2267C8.97997 13.44 8.8733 13.5533 8.65997 13.56C8.40664 13.5667 8.14664 13.5667 7.8933 13.56C7.66664 13.5533 7.55997 13.4267 7.55997 13.2067C7.55997 13.0333 7.55997 12.86 7.5533 12.6867C7.54664 12.3067 7.53997 12.2867 7.16664 12.2267C6.6933 12.1533 6.2333 12.0467 5.79997 11.8333C5.4733 11.68 5.43997 11.5933 5.5333 11.24Z" fill="#4CA77C"/>
<path d="M26.4133 16.7866H25.4733C24.8533 14.8866 23.64 13.2 22.02 11.8933C22.02 11.8333 22.0067 11.7666 21.9933 11.7066C21.6533 10.5133 22.0733 9.42664 22.56 8.64664C22.9 8.09997 22.46 7.39997 21.82 7.47997C20.3867 7.65997 19.4 8.18664 18.72 8.77997C18.2533 9.18664 17.92 9.73331 17.7733 10.34C16.7467 14.5933 12.9133 17.76 8.34665 17.76C6.12665 17.76 4.08665 17.0133 2.45332 15.76C1.88665 16.9866 1.57999 18.3266 1.57999 19.7333C1.57999 20.4933 1.67332 21.2333 1.84665 21.9466C1.84665 21.9466 1.84665 21.96 1.85332 21.98C2.03332 22.72 2.30665 23.4333 2.65332 24.1066C3.11332 25.1 3.77999 26.26 4.69999 27.2C6.02665 28.5666 6.25332 30.26 6.28665 30.9933V31.3066C6.28665 31.32 6.28665 31.3333 6.28665 31.3466C6.28665 31.3533 6.28665 31.3533 6.28665 31.3533C6.31332 31.7133 6.61332 32 6.97999 32H11.1933C11.5733 32 11.8867 31.6933 11.8867 31.3066V30.2666C12.5 30.3466 13.1267 30.3933 13.76 30.3933C14.26 30.3933 14.7467 30.3666 15.2333 30.3133V31.3066C15.2333 31.6866 15.54 32 15.9267 32H20.1533C20.5333 32 20.8467 31.6933 20.8467 31.3066V30.2666C20.8533 29.92 20.9733 28.54 22.28 27.36C22.3267 27.32 22.3733 27.28 22.42 27.24C22.4333 27.2266 22.4467 27.22 22.46 27.2066C23.9133 25.9133 24.9867 24.3 25.54 22.5H26.4267C27.1333 22.5 27.7067 21.9266 27.7067 21.22V18.0666C27.6933 17.36 27.12 16.7866 26.4133 16.7866ZM21.14 17.0133C20.56 17.0133 20.0933 16.5466 20.0933 15.9666C20.0933 15.3866 20.56 14.92 21.14 14.92C21.72 14.92 22.1867 15.3866 22.1867 15.9666C22.1867 16.5466 21.72 17.0133 21.14 17.0133Z" fill="#4CA77C"/>
</svg>
