<svg width="32" height="32" viewBox="0 0 32 32" fill="none" xmlns="http://www.w3.org/2000/svg">
<g clip-path="url(#clip0)">
<path d="M5.02268 30.9594C5.23132 31.1674 5.23132 31.5047 5.02268 31.7133C4.81431 31.9217 4.47636 31.9209 4.26878 31.7133C3.78658 31.2311 0.598989 28.0435 0.15598 27.6005C-0.0519933 27.3925 -0.0519933 27.0546 0.15598 26.8466C0.36462 26.6386 0.701909 26.6386 0.910549 26.8466L1.47581 27.4119L4.55961 24.3281C4.76785 24.1198 5.10554 24.1198 5.31378 24.3281L7.79853 26.8128C8.00677 27.0211 8.00677 27.3588 7.79853 27.567L4.71472 30.6508L5.02268 30.9594ZM31.8399 0.286717C31.6312 0.078744 31.294 0.078744 31.0853 0.286717L22.5857 8.78695L22.3911 8.59231C21.6939 7.89507 20.564 7.89507 19.8668 8.59231L19.7748 8.6843C19.5661 8.89294 19.5661 9.2309 19.7754 9.43887C20.482 10.1421 21.9845 11.6453 22.6871 12.3505C22.895 12.5598 23.233 12.5605 23.4416 12.3518L23.5343 12.2592C24.2255 11.5693 24.2375 10.4394 23.5343 9.7355L23.3397 9.54086L31.8399 1.04062C32.0479 0.832647 32.0479 0.495357 31.8399 0.286717ZM22.1847 13.3553L18.7476 9.91814C18.1237 9.29422 17.1085 9.29422 16.4852 9.91814L5.20266 21.2007L4.55141 20.5494C4.34344 20.3408 4.00548 20.3408 3.79751 20.5494C3.58887 20.7574 3.58887 21.0954 3.79751 21.3033L10.8233 28.3291C11.0326 28.5384 11.3705 28.5358 11.5772 28.3291C11.7851 28.1205 11.7851 27.7832 11.5772 27.5752L10.9259 26.9239L13.8592 23.9907C14.0674 23.7824 14.0674 23.4448 13.8592 23.2365L12.6435 22.0208C12.4352 21.8125 12.4352 21.4749 12.6435 21.2667C12.8518 21.0584 13.1894 21.0584 13.3976 21.2667L14.6133 22.4824C14.8216 22.6906 15.1592 22.6906 15.3675 22.4824L18.2653 19.5846C18.4735 19.3763 18.4735 19.0386 18.2653 18.8304L16.383 16.9481C16.1709 16.736 16.1748 16.3897 16.3947 16.1825C16.6073 15.9824 16.9465 16.0033 17.153 16.2098L19.0194 18.0762C19.2276 18.2845 19.5653 18.2845 19.7736 18.0762L22.2084 15.6414C22.825 15.0248 22.8494 14.0199 22.1847 13.3553ZM31.4199 10.0088L29.8248 8.03705C29.611 7.77268 29.2084 7.77382 28.9956 8.03705L27.4005 10.0088C26.0243 11.7091 27.2551 14.2203 29.4102 14.2203C31.5681 14.2203 32.7938 11.7063 31.4199 10.0088Z" fill="#FCD116"/>
</g>
<defs>
<clipPath id="clip0">
<rect width="32" height="32" fill="white"/>
</clipPath>
</defs>
</svg>
