<svg width="228" height="750" viewBox="0 0 228 750" fill="none" xmlns="http://www.w3.org/2000/svg">
<g opacity="0.05">
<path d="M456.571 248.833C452.891 265.97 442.073 279.695 427.942 287.522C416.18 294.039 402.122 296.469 387.975 293.379C375.13 290.574 364.219 283.658 356.304 274.294C356.051 273.994 355.8 273.692 355.553 273.387C351.176 267.991 347.773 261.827 345.538 255.197C342.282 245.541 341.504 234.899 343.8 224.207C347.349 207.679 357.538 194.326 370.934 186.375C382.99 179.219 397.645 176.439 412.396 179.66C427.689 183 440.242 192.169 448.258 204.355C456.566 216.983 460.003 232.852 456.571 248.833Z" fill="#0D8570"/>
<path d="M522.072 349.592C537.506 352.962 550.15 362.27 558.156 374.626C566.303 387.198 569.648 402.926 566.246 418.764C562.961 434.062 553.988 446.64 542.049 454.732C529.479 463.252 513.621 466.798 497.65 463.311C485.384 460.632 474.88 454.203 467.066 445.474C464.164 442.232 461.633 438.673 459.52 434.871C452.881 422.923 450.375 408.576 453.476 394.138C456.491 380.097 464.298 368.347 474.793 360.254C487.769 350.247 504.855 345.832 522.072 349.592Z" fill="#0D8570"/>
<path fill-rule="evenodd" clip-rule="evenodd" d="M622.283 212.285C619.277 114.198 550.649 27.0218 451.243 5.31359C351.836 -16.3947 253.592 34.3407 210.614 122.385C113.346 125.417 26.8962 194.621 5.36904 294.864C-16.1582 395.107 34.1541 494.177 121.464 537.516C124.47 635.603 193.098 722.779 292.505 744.487C391.911 766.195 490.155 715.46 533.133 627.416C630.402 624.384 716.851 555.18 738.378 454.937C759.905 354.694 709.593 255.624 622.283 212.285ZM190.424 188.423C185.119 225.789 195.72 234.094 208.163 267.495C195.907 275.569 186.674 288.32 183.331 303.887C179.988 319.455 183.163 334.916 191.008 347.379C198.989 360.056 211.803 369.631 227.506 373.06C245.165 376.917 262.687 372.172 275.778 361.615C276.21 361.964 275.343 361.269 275.778 361.615C288.481 355.352 303.376 351.872 317.499 349.322C335.405 346.089 348.039 374.533 366.908 378.125C368.272 378.385 369.636 378.664 371.001 378.962C372.366 379.26 373.723 379.575 375.071 379.908C393.723 384.509 410.774 392.388 425.749 402.801C437.561 411.014 448.081 420.804 457.077 431.805C457.904 432.817 458.719 433.839 459.52 434.871C461.633 438.673 464.164 442.232 467.066 445.474C488.196 477.95 497.295 518.36 489.63 559.295C489.373 560.67 489.096 562.046 488.801 563.423C484.416 583.839 476.233 602.438 465.16 618.631C430.816 668.857 368.674 695.926 305.878 682.213C243.082 668.499 197.613 617.93 186.951 557.876C223.311 563.125 259.137 558.874 291.763 546.857C299.755 559.397 312.496 568.858 328.085 572.262C344.204 575.782 360.208 572.136 372.832 563.445C384.597 555.345 393.427 542.864 396.681 527.715C400.457 510.128 395.915 492.676 385.717 479.53C377.706 469.204 366.206 461.534 352.506 458.543C339.685 455.743 326.938 457.476 315.905 462.676C315.749 462.058 316.056 463.295 315.905 462.676C275.981 481.492 235.526 502.503 189.017 493.647C187.653 493.388 186.289 493.109 184.924 492.811C164.678 488.39 146.233 480.137 130.176 468.972C80.369 434.339 53.5254 371.674 67.1244 308.35C80.7233 245.025 130.871 199.174 190.424 188.423ZM437.869 67.5883C500.665 81.3016 546.134 131.871 556.796 191.924C519.047 186.475 481.872 191.265 448.258 204.355C440.242 192.169 427.689 183 412.396 179.66C397.645 176.439 382.99 179.219 370.934 186.375C357.538 194.326 347.349 207.679 343.8 224.207C341.504 234.899 342.282 245.541 345.538 255.197C347.773 261.827 351.176 267.991 355.553 273.387C355.8 273.692 356.051 273.994 356.304 274.294C364.219 283.658 375.13 290.574 387.975 293.379C402.122 296.469 416.18 294.039 427.942 287.522C427.824 287.036 428.065 288.008 427.942 287.522C470.589 263.897 508.221 247.298 554.73 256.153C556.094 256.413 557.459 256.692 558.824 256.99C579.069 261.411 597.514 269.663 613.572 280.829C663.378 315.462 690.222 378.126 676.623 441.451C663.024 504.775 612.876 550.627 553.324 561.378C558.579 524.358 554.231 487.887 542.049 454.732C553.988 446.64 562.961 434.062 566.246 418.764C569.648 402.926 566.303 387.198 558.156 374.626C550.15 362.27 537.506 352.962 522.072 349.592C504.855 345.832 487.769 350.247 474.793 360.254C474.129 359.712 473.461 359.174 472.789 358.64C461.02 349.274 448.198 341.075 434.461 334.256C423.392 328.762 411.728 324.163 399.541 320.571C394.571 319.107 389.514 317.809 384.375 316.687C379.236 315.565 374.099 314.636 368.974 313.896C356.405 312.082 343.9 311.403 331.568 311.787C316.264 312.264 307.349 285.876 292.791 289.493C286.088 281.295 274.11 300.927 269.196 291.535C253.503 261.539 247.429 226.222 254.117 190.506C254.374 189.131 254.651 187.755 254.947 186.378C259.331 165.962 267.514 147.363 278.587 131.17C312.931 80.9443 375.073 53.875 437.869 67.5883Z" fill="#0D8570"/>
</g>
</svg>
